<?xml version="1.0" standalone="no"?>
<!DOCTYPE svg PUBLIC "-//W3C//DTD SVG 20010904//EN"
 "http://www.w3.org/TR/2001/REC-SVG-20010904/DTD/svg10.dtd">
<svg version="1.0" xmlns="http://www.w3.org/2000/svg"
 width="150.000000pt" height="630.000000pt" viewBox="0 0 150.000000 630.000000"
 preserveAspectRatio="xMidYMid meet">
<metadata>
Created by potrace 1.11, written by Peter Selinger 2001-2013
</metadata>
<g transform="translate(0.000000,630.000000) scale(0.100000,-0.100000)"
fill="#000000" stroke="none">
<path d="M1342 6280 c-7 -11 -18 -20 -26 -20 -7 0 -21 -9 -31 -20 -10 -11 -23
-20 -29 -20 -6 0 -56 -45 -111 -100 -55 -55 -105 -100 -111 -100 -6 0 -19 -9
-29 -20 -10 -11 -23 -20 -29 -20 -15 0 -486 -472 -486 -486 0 -7 -7 -17 -15
-24 -32 -27 -45 -72 -45 -161 0 -48 -5 -91 -10 -94 -5 -3 -10 -21 -10 -40 0
-19 -5 -37 -10 -40 -6 -3 -10 -21 -10 -40 0 -19 -4 -37 -10 -40 -13 -8 -13
-212 0 -220 6 -3 10 -16 10 -29 0 -13 9 -31 20 -41 11 -10 20 -23 20 -30 0 -6
18 -29 40 -50 22 -21 40 -44 40 -50 0 -7 9 -20 20 -30 11 -10 20 -23 20 -29 0
-7 23 -34 50 -61 28 -27 50 -54 50 -61 0 -6 9 -19 20 -29 11 -10 20 -28 20
-41 0 -13 4 -26 10 -29 5 -3 10 -39 10 -80 0 -41 -5 -77 -10 -80 -6 -3 -10
-23 -10 -44 0 -35 -31 -111 -61 -149 -24 -30 -39 -61 -39 -81 0 -11 -4 -23
-10 -26 -13 -8 -13 -72 0 -80 6 -3 10 -14 10 -24 0 -26 26 -74 55 -101 14 -13
25 -29 25 -35 0 -6 18 -29 40 -50 22 -21 40 -44 40 -50 0 -7 9 -20 20 -30 11
-10 20 -23 20 -30 0 -7 9 -20 20 -30 11 -10 20 -23 20 -30 0 -7 9 -20 20 -30
11 -10 20 -28 20 -41 0 -13 5 -26 10 -29 6 -3 10 -41 10 -84 0 -78 -14 -125
-45 -151 -8 -7 -15 -18 -15 -25 0 -6 -9 -20 -20 -30 -11 -10 -20 -24 -20 -30
0 -7 -7 -18 -15 -25 -8 -7 -33 -49 -55 -95 -22 -46 -47 -88 -55 -95 -8 -7 -15
-18 -15 -25 0 -6 -9 -20 -20 -30 -11 -10 -20 -24 -20 -30 0 -7 -7 -18 -15 -25
-9 -7 -25 -32 -35 -55 -10 -23 -26 -48 -35 -55 -8 -7 -15 -18 -15 -25 0 -6 -9
-20 -20 -30 -17 -15 -20 -31 -20 -101 0 -46 5 -86 10 -89 13 -8 13 -192 0
-200 -6 -3 -10 -48 -10 -99 0 -80 3 -95 20 -111 11 -10 20 -23 20 -30 0 -6 13
-24 30 -40 16 -16 30 -34 30 -40 0 -6 14 -24 30 -40 17 -16 30 -34 30 -40 0
-6 14 -24 30 -40 17 -16 30 -34 30 -40 0 -6 13 -24 30 -40 16 -16 30 -34 30
-40 0 -6 13 -24 30 -40 16 -16 30 -34 30 -40 0 -7 9 -20 20 -30 11 -10 20 -23
20 -30 0 -7 9 -20 20 -30 11 -10 20 -28 20 -41 0 -13 5 -26 10 -29 13 -8 13
-212 0 -220 -6 -3 -10 -17 -10 -29 0 -13 -7 -29 -15 -36 -9 -7 -25 -33 -35
-56 -11 -24 -24 -46 -30 -49 -6 -3 -19 -25 -29 -48 -11 -23 -34 -55 -51 -72
-17 -16 -40 -48 -50 -71 -11 -22 -26 -47 -35 -54 -8 -7 -15 -18 -15 -25 0 -6
-9 -20 -20 -30 -11 -10 -20 -23 -20 -30 0 -6 -12 -22 -26 -36 -14 -13 -34 -42
-44 -65 -11 -22 -26 -47 -35 -54 -8 -7 -15 -18 -15 -25 0 -6 -9 -20 -20 -30
-12 -11 -20 -31 -20 -51 0 -18 -5 -36 -10 -39 -6 -4 -10 -58 -10 -130 0 -72
-4 -126 -10 -130 -14 -9 -12 -55 3 -55 25 0 37 54 37 171 0 68 4 120 10 124 5
3 10 21 10 39 0 20 8 40 20 51 11 10 20 24 20 30 0 7 7 18 15 25 9 7 24 32 35
54 10 23 30 52 44 65 14 14 26 30 26 36 0 7 9 20 20 30 11 10 20 24 20 30 0 7
7 18 15 25 9 7 24 32 35 54 10 23 33 55 50 71 17 17 40 49 51 72 10 23 23 45
29 48 6 3 19 25 30 49 10 23 26 49 35 56 8 7 15 23 15 36 0 12 4 26 10 29 6 4
10 58 10 130 0 72 -4 126 -10 130 -6 3 -10 16 -10 29 0 13 -9 31 -20 41 -11
10 -20 23 -20 30 0 7 -9 20 -20 30 -11 10 -20 23 -20 30 0 6 -14 24 -30 40
-17 16 -30 34 -30 40 0 6 -13 24 -30 40 -16 16 -30 34 -30 40 0 6 -14 24 -30
40 -16 16 -30 34 -30 40 0 6 -14 24 -30 40 -17 16 -30 34 -30 40 0 6 -14 24
-30 40 -17 16 -30 34 -30 40 0 7 -9 20 -20 30 -17 15 -20 31 -20 91 0 40 5 76
10 79 13 8 13 232 0 240 -5 3 -10 34 -10 69 0 50 4 67 20 81 11 10 20 24 20
30 0 7 7 18 15 25 9 7 25 32 35 55 10 23 26 48 35 55 8 7 15 18 15 25 0 6 9
20 20 30 11 10 20 24 20 30 0 7 7 18 15 25 8 7 33 49 55 95 22 46 47 88 55 95
8 7 15 18 15 25 0 6 9 20 20 30 11 10 20 24 20 30 0 7 7 18 15 25 33 28 45 72
45 171 0 54 -4 101 -10 104 -5 3 -10 16 -10 29 0 13 -9 31 -20 41 -11 10 -20
23 -20 30 0 7 -9 20 -20 30 -11 10 -20 23 -20 30 0 7 -9 20 -20 30 -11 10 -20
23 -20 30 0 6 -18 29 -40 50 -22 21 -40 44 -40 50 0 6 -11 22 -25 35 -29 27
-55 75 -55 100 0 9 -6 22 -12 28 -10 10 -10 17 0 32 6 11 12 27 12 35 0 16 17
49 39 77 30 38 61 114 61 149 0 21 5 41 10 44 13 8 13 192 0 200 -5 3 -10 16
-10 29 0 13 -9 31 -20 41 -11 10 -20 23 -20 29 0 7 -23 34 -50 61 -28 27 -50
54 -50 61 0 6 -9 19 -20 29 -11 10 -20 23 -20 30 0 6 -18 29 -40 50 -22 21
-40 44 -40 50 0 7 -9 20 -20 30 -11 10 -20 28 -20 41 0 13 -4 26 -10 29 -5 3
-10 44 -10 90 0 46 5 87 10 90 6 3 10 21 10 40 0 19 4 37 10 40 5 3 10 21 10
40 0 19 5 37 10 40 6 3 10 46 10 94 0 89 13 134 45 161 8 7 15 18 15 24 0 14
462 476 476 476 6 0 19 9 29 20 10 11 23 20 29 20 6 0 56 45 111 100 55 55
105 100 111 100 6 0 19 9 29 20 10 11 23 20 30 20 12 0 65 51 65 63 0 16 -46
5 -58 -13z"/>
</g>
</svg>
